STARTFONT 2.1
COMMENT
COMMENT  This font is copyrighted by its author, who reserves all rights under
COMMENT  national and international copyright laws.
COMMENT
COMMENT  Produced with bdfedit, a tcl/tk font editing program
COMMENT    written by Thomas A. Fine
COMMENT    Email to my last name at head.cfa.harvard.edu
COMMENT    http://hea-www.harvard.edu/~fine/
FONT -arcade-charter-bold-r-normal--11-80-100-100-p-69-iso8859-1
SIZE 11 100 100
FONTBOUNDINGBOX 12 13 -1 -3
STARTPROPERTIES 11
FOUNDRY "Bitstream"
FAMILY_NAME "Charter"
WEIGHT_NAME "Bold"
SLANT "R"
SETWIDTH_NAME "Normal"
SPACING "c"
CHARSET_REGISTRY "ISO-8859"
CHARSET_ENCODING "1"
COPYRIGHT "Copyright 1995"
FONT_ASCENT  10
FONT_DESCENT 3
ENDPROPERTIES
CHARS 191
STARTCHAR space
ENCODING 32
SWIDTH 1090 0
DWIDTH 12 0
BBX 0 0 0 0
BITMAP
ENDCHAR
STARTCHAR exclam
ENCODING 33
SWIDTH 1090 0
DWIDTH 12 0
BBX 10 10 0 0
BITMAP
0c00
0c00
1e00
1e00
4c80
ccc0
ffc0
ffc0
dec0
d2c0
ENDCHAR
STARTCHAR quotedbl
ENCODING 34
SWIDTH 1090 0
DWIDTH 12 0
BBX 10 10 0 0
BITMAP
f800
fc00
3000
f300
7fc0
7fc0
f300
3000
fc00
f800
ENDCHAR
STARTCHAR numbersign
ENCODING 35
SWIDTH 1090 0
DWIDTH 12 0
BBX 10 10 0 0
BITMAP
d2c0
dec0
ffc0
ffc0
ccc0
4c80
1e00
1e00
0c00
0c00
ENDCHAR
STARTCHAR dollar
ENCODING 36
SWIDTH 1090 0
DWIDTH 12 0
BBX 10 10 0 0
BITMAP
07c0
0fc0
0300
33c0
ff80
ff80
33c0
0300
0fc0
07c0
ENDCHAR
STARTCHAR percent
ENCODING 37
SWIDTH 1000 0
DWIDTH 11 0
BBX 7 7 0 0
BITMAP
7c
92
aa
c6
aa
92
7c
ENDCHAR
STARTCHAR ampersand
ENCODING 38
SWIDTH 1000 0
DWIDTH 11 0
BBX 9 5 0 0
BITMAP
ff80
ff80
e380
4100
2200
ENDCHAR
STARTCHAR quoteright
ENCODING 39
SWIDTH 1000 0
DWIDTH 11 0
BBX 9 5 0 0
BITMAP
2200
4100
e380
ff80
ff80
ENDCHAR
STARTCHAR parenleft
ENCODING 40
SWIDTH 1000 0
DWIDTH 11 0
BBX 4 9 0 0
BITMAP
c0
e0
d0
80
80
80
d0
e0
c0
ENDCHAR
STARTCHAR parenright
ENCODING 41
SWIDTH 1000 0
DWIDTH 11 0
BBX 4 9 0 0
BITMAP
30
70
b0
10
10
10
b0
70
30
ENDCHAR
STARTCHAR asterisk
ENCODING 42
SWIDTH 1000 0
DWIDTH 11 0
BBX 9 9 0 0
BITMAP
0800
1c00
3e00
ff80
2a00
ff80
3e00
1c00
0800
ENDCHAR
STARTCHAR plus
ENCODING 43
SWIDTH 1000 0
DWIDTH 11 0
BBX 9 10 0 0
BITMAP
1400
1400
3e00
7700
ff80
7700
3e00
1400
1400
1400
ENDCHAR
STARTCHAR comma
ENCODING 44
SWIDTH 1000 0
DWIDTH 11 0
BBX 1 4 4 3
BITMAP
80
80
80
80
ENDCHAR
STARTCHAR hyphen
ENCODING 45
SWIDTH 1000 0
DWIDTH 11 0
BBX 4 1 3 4
BITMAP
f0
ENDCHAR
STARTCHAR period
ENCODING 46
SWIDTH 1000 0
DWIDTH 11 0
BBX 10 9 1 1
BITMAP
c000
c000
c000
c000
c000
c000
c000
ffc0
ffc0
ENDCHAR
STARTCHAR slash
ENCODING 47
SWIDTH 1000 0
DWIDTH 11 0
BBX 10 9 0 1
BITMAP
00c0
00c0
00c0
00c0
00c0
00c0
00c0
ffc0
ffc0
ENDCHAR
STARTCHAR zero
ENCODING 48
SWIDTH 1000 0
DWIDTH 11 0
BBX 10 9 1 0
BITMAP
ffc0
ffc0
c000
c000
c000
c000
c000
c000
c000
ENDCHAR
STARTCHAR one
ENCODING 49
SWIDTH 1000 0
DWIDTH 11 0
BBX 10 9 0 0
BITMAP
ffc0
ffc0
00c0
00c0
00c0
00c0
00c0
00c0
00c0
ENDCHAR
STARTCHAR two
ENCODING 50
SWIDTH 1000 0
DWIDTH 11 0
BBX 11 2 0 7
BITMAP
ffe0
ffe0
ENDCHAR
STARTCHAR three
ENCODING 51
SWIDTH 1000 0
DWIDTH 11 0
BBX 11 2 0 1
BITMAP
ffe0
ffe0
ENDCHAR
STARTCHAR four
ENCODING 52
SWIDTH 1000 0
DWIDTH 11 0
BBX 2 10 1 0
BITMAP
c0
c0
c0
c0
c0
c0
c0
c0
c0
c0
ENDCHAR
STARTCHAR five
ENCODING 53
SWIDTH 1000 0
DWIDTH 11 0
BBX 2 10 8 0
BITMAP
c0
c0
c0
c0
c0
c0
c0
c0
c0
c0
ENDCHAR
STARTCHAR zero
ENCODING 54
SWIDTH 545 0
DWIDTH 6 0
BBX 5 7 1 0
BITMAP
30
48
48
88
90
90
60
ENDCHAR
STARTCHAR one
ENCODING 55
SWIDTH 545 0
DWIDTH 6 0
BBX 5 7 1 0
BITMAP
08
38
10
10
20
20
f0
ENDCHAR
STARTCHAR two
ENCODING 56
SWIDTH 545 0
DWIDTH 6 0
BBX 6 7 0 0
BITMAP
18
24
04
08
30
40
f8
ENDCHAR
STARTCHAR three
ENCODING 57
SWIDTH 545 0
DWIDTH 6 0
BBX 5 7 1 0
BITMAP
30
48
08
30
10
90
60
ENDCHAR
STARTCHAR four
ENCODING 58
SWIDTH 545 0
DWIDTH 6 0
BBX 5 7 1 0
BITMAP
18
28
50
90
f8
20
60
ENDCHAR
STARTCHAR five
ENCODING 59
SWIDTH 545 0
DWIDTH 6 0
BBX 5 7 1 0
BITMAP
38
40
70
08
08
90
60
ENDCHAR
STARTCHAR six
ENCODING 60
SWIDTH 545 0
DWIDTH 6 0
BBX 5 7 1 0
BITMAP
18
20
40
70
88
90
60
ENDCHAR
STARTCHAR seven
ENCODING 61
SWIDTH 545 0
DWIDTH 6 0
BBX 5 7 2 0
BITMAP
f8
88
10
20
40
80
80
ENDCHAR
STARTCHAR eight
ENCODING 62
SWIDTH 545 0
DWIDTH 6 0
BBX 5 7 1 0
BITMAP
30
48
48
70
90
90
60
ENDCHAR
STARTCHAR nine
ENCODING 63
SWIDTH 545 0
DWIDTH 6 0
BBX 6 7 0 0
BITMAP
18
24
44
38
08
10
e0
ENDCHAR
STARTCHAR at
ENCODING 64
SWIDTH 1000 0
DWIDTH 11 0
BBX 7 9 1 0
BITMAP
08
18
10
7c
fe
fe
fe
fe
7c
ENDCHAR
STARTCHAR A
ENCODING 65
SWIDTH 818 0
DWIDTH 9 0
BBX 9 9 0 0
BITMAP
1c00
2200
4100
9480
8080
8080
c180
4100
3e00
ENDCHAR
STARTCHAR B
ENCODING 66
SWIDTH 818 0
DWIDTH 9 0
BBX 9 9 0 0
BITMAP
3e00
4100
c180
8080
8080
9480
4100
2200
1c00
ENDCHAR
STARTCHAR C
ENCODING 67
SWIDTH 818 0
DWIDTH 9 0
BBX 9 9 0 0
BITMAP
3c00
6200
8100
8480
8080
8480
8100
6200
3c00
ENDCHAR
STARTCHAR D
ENCODING 68
SWIDTH 818 0
DWIDTH 9 0
BBX 9 9 0 0
BITMAP
1e00
2300
4080
9080
8080
9080
4080
2300
1e00
ENDCHAR
STARTCHAR E
ENCODING 69
SWIDTH 909 0
DWIDTH 10 0
BBX 10 10 0 0
BITMAP
3fc0
3fc0
30c0
ffc0
ffc0
ffc0
ffc0
30c0
3fc0
3fc0
ENDCHAR
STARTCHAR F
ENCODING 70
SWIDTH 909 0
DWIDTH 10 0
BBX 10 10 0 0
BITMAP
ff00
ff00
c300
ffc0
ffc0
ffc0
ffc0
c300
ff00
ff00
ENDCHAR
STARTCHAR G
ENCODING 71
SWIDTH 909 0
DWIDTH 10 0
BBX 10 10 0 0
BITMAP
1e00
1e00
ffc0
ffc0
dec0
dec0
dec0
dec0
ffc0
ffc0
ENDCHAR
STARTCHAR H
ENCODING 72
SWIDTH 909 0
DWIDTH 10 0
BBX 10 10 0 0
BITMAP
ffc0
ffc0
dec0
dec0
dec0
dec0
ffc0
ffc0
1e00
1e00
ENDCHAR
STARTCHAR I
ENCODING 73
SWIDTH 818 0
DWIDTH 9 0
BBX 5 8 0 1
BITMAP
40
60
f0
f8
f8
f0
60
40
ENDCHAR
STARTCHAR J
ENCODING 74
SWIDTH 818 0
DWIDTH 9 0
BBX 5 8 4 1
BITMAP
10
30
78
f8
f8
78
30
10
ENDCHAR
STARTCHAR K
ENCODING 75
SWIDTH 909 0
DWIDTH 10 0
BBX 8 5 1 0
BITMAP
18
3c
7e
ff
3c
ENDCHAR
STARTCHAR L
ENCODING 76
SWIDTH 909 0
DWIDTH 10 0
BBX 8 5 1 5
BITMAP
3c
ff
7e
3c
18
ENDCHAR
STARTCHAR M
ENCODING 77
SWIDTH 1000 0
DWIDTH 11 0
BBX 0 0 0 0
BITMAP
ENDCHAR
STARTCHAR N
ENCODING 78
SWIDTH 1000 0
DWIDTH 11 0
BBX 0 0 0 0
BITMAP
ENDCHAR
STARTCHAR O
ENCODING 79
SWIDTH 1000 0
DWIDTH 11 0
BBX 11 10 0 0
BITMAP
4920
2480
9240
4920
2480
9240
4920
2480
9240
4920
ENDCHAR
STARTCHAR P
ENCODING 80
SWIDTH 1000 0
DWIDTH 11 0
BBX 0 0 0 0
BITMAP
ENDCHAR
STARTCHAR Q
ENCODING 81
SWIDTH 1000 0
DWIDTH 11 0
BBX 0 0 0 0
BITMAP
ENDCHAR
STARTCHAR R
ENCODING 82
SWIDTH 1000 0
DWIDTH 11 0
BBX 0 0 0 0
BITMAP
ENDCHAR
STARTCHAR S
ENCODING 83
SWIDTH 1000 0
DWIDTH 11 0
BBX 0 0 0 0
BITMAP
ENDCHAR
STARTCHAR T
ENCODING 84
SWIDTH 1000 0
DWIDTH 11 0
BBX 0 0 0 0
BITMAP
ENDCHAR
STARTCHAR U
ENCODING 85
SWIDTH 1000 0
DWIDTH 11 0
BBX 0 0 0 0
BITMAP
ENDCHAR
STARTCHAR V
ENCODING 86
SWIDTH 1000 0
DWIDTH 11 0
BBX 0 0 0 0
BITMAP
ENDCHAR
STARTCHAR W
ENCODING 87
SWIDTH 1000 0
DWIDTH 11 0
BBX 0 0 0 0
BITMAP
ENDCHAR
STARTCHAR X
ENCODING 88
SWIDTH 1000 0
DWIDTH 11 0
BBX 0 0 0 0
BITMAP
ENDCHAR
STARTCHAR Y
ENCODING 89
SWIDTH 1000 0
DWIDTH 11 0
BBX 0 0 0 0
BITMAP
ENDCHAR
STARTCHAR Z
ENCODING 90
SWIDTH 1000 0
DWIDTH 11 0
BBX 0 0 0 0
BITMAP
ENDCHAR
STARTCHAR bracketleft
ENCODING 91
SWIDTH 1000 0
DWIDTH 11 0
BBX 0 0 0 0
BITMAP
ENDCHAR
STARTCHAR backslash
ENCODING 92
SWIDTH 1000 0
DWIDTH 11 0
BBX 0 0 0 0
BITMAP
ENDCHAR
STARTCHAR bracketright
ENCODING 93
SWIDTH 1000 0
DWIDTH 11 0
BBX 0 0 0 0
BITMAP
ENDCHAR
STARTCHAR asciicircum
ENCODING 94
SWIDTH 1000 0
DWIDTH 11 0
BBX 0 0 0 0
BITMAP
ENDCHAR
STARTCHAR underscore
ENCODING 95
SWIDTH 1000 0
DWIDTH 11 0
BBX 0 0 0 0
BITMAP
ENDCHAR
STARTCHAR quoteleft
ENCODING 96
SWIDTH 1000 0
DWIDTH 11 0
BBX 1 7 4 1
BITMAP
80
80
00
00
00
80
80
ENDCHAR
STARTCHAR A
ENCODING 97
SWIDTH 545 0
DWIDTH 6 0
BBX 6 6 0 0
BITMAP
38
18
28
38
48
cc
ENDCHAR
STARTCHAR B
ENCODING 98
SWIDTH 545 0
DWIDTH 6 0
BBX 6 6 0 0
BITMAP
78
24
38
44
44
f8
ENDCHAR
STARTCHAR C
ENCODING 99
SWIDTH 545 0
DWIDTH 6 0
BBX 5 6 1 0
BITMAP
38
48
80
80
88
70
ENDCHAR
STARTCHAR D
ENCODING 100
SWIDTH 545 0
DWIDTH 6 0
BBX 6 6 0 0
BITMAP
78
24
24
44
48
f0
ENDCHAR
STARTCHAR E
ENCODING 101
SWIDTH 545 0
DWIDTH 6 0
BBX 6 6 0 0
BITMAP
7c
24
30
40
48
f8
ENDCHAR
STARTCHAR F
ENCODING 102
SWIDTH 545 0
DWIDTH 6 0
BBX 6 6 0 0
BITMAP
7c
20
38
40
40
e0
ENDCHAR
STARTCHAR G
ENCODING 103
SWIDTH 545 0
DWIDTH 6 0
BBX 5 6 1 0
BITMAP
38
48
80
98
88
70
ENDCHAR
STARTCHAR H
ENCODING 104
SWIDTH 545 0
DWIDTH 6 0
BBX 6 6 0 0
BITMAP
34
24
3c
48
48
d8
ENDCHAR
STARTCHAR I
ENCODING 105
SWIDTH 545 0
DWIDTH 6 0
BBX 5 6 1 0
BITMAP
78
10
10
20
20
f8
ENDCHAR
STARTCHAR J
ENCODING 106
SWIDTH 545 0
DWIDTH 6 0
BBX 6 6 1 0
BITMAP
1c
08
08
10
90
e0
ENDCHAR
STARTCHAR K
ENCODING 107
SWIDTH 545 0
DWIDTH 6 0
BBX 6 6 0 0
BITMAP
34
28
30
50
48
ec
ENDCHAR
STARTCHAR L
ENCODING 108
SWIDTH 545 0
DWIDTH 6 0
BBX 5 6 1 0
BITMAP
30
20
20
40
48
f0
ENDCHAR
STARTCHAR M
ENCODING 109
SWIDTH 545 0
DWIDTH 6 0
BBX 6 6 0 0
BITMAP
64
2c
54
54
88
98
ENDCHAR
STARTCHAR N
ENCODING 110
SWIDTH 545 0
DWIDTH 6 0
BBX 6 6 0 0
BITMAP
64
24
34
58
48
c8
ENDCHAR
STARTCHAR O
ENCODING 111
SWIDTH 545 0
DWIDTH 6 0
BBX 5 6 1 0
BITMAP
30
48
88
88
90
60
ENDCHAR
STARTCHAR P
ENCODING 112
SWIDTH 545 0
DWIDTH 6 0
BBX 6 6 0 0
BITMAP
78
24
24
58
40
e0
ENDCHAR
STARTCHAR Q
ENCODING 113
SWIDTH 545 0
DWIDTH 6 0
BBX 5 8 1 -2
BITMAP
30
48
88
88
90
60
c0
30
ENDCHAR
STARTCHAR R
ENCODING 114
SWIDTH 545 0
DWIDTH 6 0
BBX 6 6 0 0
BITMAP
78
24
24
58
48
ec
ENDCHAR
STARTCHAR S
ENCODING 115
SWIDTH 545 0
DWIDTH 6 0
BBX 5 6 1 0
BITMAP
38
48
60
10
88
f0
ENDCHAR
STARTCHAR T
ENCODING 116
SWIDTH 545 0
DWIDTH 6 0
BBX 6 6 0 0
BITMAP
7c
90
10
20
20
70
ENDCHAR
STARTCHAR U
ENCODING 117
SWIDTH 545 0
DWIDTH 6 0
BBX 5 6 1 0
BITMAP
68
48
48
90
90
60
ENDCHAR
STARTCHAR V
ENCODING 118
SWIDTH 545 0
DWIDTH 6 0
BBX 5 6 1 0
BITMAP
e8
48
50
50
60
40
ENDCHAR
STARTCHAR W
ENCODING 119
SWIDTH 545 0
DWIDTH 6 0
BBX 6 6 1 0
BITMAP
cc
84
a8
a8
f0
a0
ENDCHAR
STARTCHAR X
ENCODING 120
SWIDTH 545 0
DWIDTH 6 0
BBX 6 6 0 0
BITMAP
6c
28
30
30
50
d8
ENDCHAR
STARTCHAR Y
ENCODING 121
SWIDTH 545 0
DWIDTH 6 0
BBX 5 6 1 0
BITMAP
c8
48
50
60
40
e0
ENDCHAR
STARTCHAR Z
ENCODING 122
SWIDTH 545 0
DWIDTH 6 0
BBX 5 6 1 0
BITMAP
38
48
10
20
48
f0
ENDCHAR
STARTCHAR braceleft
ENCODING 123
SWIDTH 545 0
DWIDTH 6 0
BBX 6 1 0 0
BITMAP
fc
ENDCHAR
STARTCHAR bar
ENCODING 124
SWIDTH 545 0
DWIDTH 6 0
BBX 2 2 2 1
BITMAP
c0
c0
ENDCHAR
STARTCHAR braceright
ENCODING 125
SWIDTH 1000 0
DWIDTH 11 0
BBX 0 0 0 0
BITMAP
ENDCHAR
STARTCHAR c0126
ENCODING 126
SWIDTH 1000 0
DWIDTH 11 0
BBX 0 0 0 0
BITMAP
ENDCHAR
STARTCHAR spaceship_up
ENCODING 160
SWIDTH 1000 0
DWIDTH 11 0
BBX 0 0 0 0
BITMAP
ENDCHAR
STARTCHAR spaceship_right
ENCODING 161
SWIDTH 1000 0
DWIDTH 11 0
BBX 0 0 0 0
BITMAP
ENDCHAR
STARTCHAR spaceship_down
ENCODING 162
SWIDTH 1000 0
DWIDTH 11 0
BBX 0 0 0 0
BITMAP
ENDCHAR
STARTCHAR spaceship_left
ENCODING 163
SWIDTH 1000 0
DWIDTH 11 0
BBX 0 0 0 0
BITMAP
ENDCHAR
STARTCHAR drone
ENCODING 164
SWIDTH 1000 0
DWIDTH 11 0
BBX 0 0 0 0
BITMAP
ENDCHAR
STARTCHAR spaceship_enemy_up
ENCODING 165
SWIDTH 1000 0
DWIDTH 11 0
BBX 0 0 0 0
BITMAP
ENDCHAR
STARTCHAR spaceship_enemy_down
ENCODING 166
SWIDTH 1000 0
DWIDTH 11 0
BBX 0 0 0 0
BITMAP
ENDCHAR
STARTCHAR spaceship_enemy_left
ENCODING 167
SWIDTH 1000 0
DWIDTH 11 0
BBX 0 0 0 0
BITMAP
ENDCHAR
STARTCHAR spaceship_enemy_right
ENCODING 168
SWIDTH 1000 0
DWIDTH 11 0
BBX 0 0 0 0
BITMAP
ENDCHAR
STARTCHAR missile_enemy_h
ENCODING 169
SWIDTH 1000 0
DWIDTH 11 0
BBX 0 0 0 0
BITMAP
ENDCHAR
STARTCHAR missile_enemy_v
ENCODING 170
SWIDTH 1000 0
DWIDTH 11 0
BBX 0 0 0 0
BITMAP
ENDCHAR
STARTCHAR guillemotleft
ENCODING 171
SWIDTH 1000 0
DWIDTH 11 0
BBX 0 0 0 0
BITMAP
ENDCHAR
STARTCHAR logicalnot
ENCODING 172
SWIDTH 1000 0
DWIDTH 11 0
BBX 0 0 0 0
BITMAP
ENDCHAR
STARTCHAR hyphen
ENCODING 173
SWIDTH 1000 0
DWIDTH 11 0
BBX 0 0 0 0
BITMAP
ENDCHAR
STARTCHAR registered
ENCODING 174
SWIDTH 1000 0
DWIDTH 11 0
BBX 0 0 0 0
BITMAP
ENDCHAR
STARTCHAR macron
ENCODING 175
SWIDTH 1000 0
DWIDTH 11 0
BBX 0 0 0 0
BITMAP
ENDCHAR
STARTCHAR degree
ENCODING 176
SWIDTH 1000 0
DWIDTH 11 0
BBX 0 0 0 0
BITMAP
ENDCHAR
STARTCHAR plusminus
ENCODING 177
SWIDTH 1000 0
DWIDTH 11 0
BBX 0 0 0 0
BITMAP
ENDCHAR
STARTCHAR twosuperior
ENCODING 178
SWIDTH 1000 0
DWIDTH 11 0
BBX 0 0 0 0
BITMAP
ENDCHAR
STARTCHAR threesuperior
ENCODING 179
SWIDTH 1000 0
DWIDTH 11 0
BBX 0 0 0 0
BITMAP
ENDCHAR
STARTCHAR acute
ENCODING 180
SWIDTH 1000 0
DWIDTH 11 0
BBX 0 0 0 0
BITMAP
ENDCHAR
STARTCHAR mu
ENCODING 181
SWIDTH 1000 0
DWIDTH 11 0
BBX 0 0 0 0
BITMAP
ENDCHAR
STARTCHAR paragraph
ENCODING 182
SWIDTH 1000 0
DWIDTH 11 0
BBX 0 0 0 0
BITMAP
ENDCHAR
STARTCHAR periodcentered
ENCODING 183
SWIDTH 1000 0
DWIDTH 11 0
BBX 0 0 0 0
BITMAP
ENDCHAR
STARTCHAR cedilla
ENCODING 184
SWIDTH 1000 0
DWIDTH 11 0
BBX 0 0 0 0
BITMAP
ENDCHAR
STARTCHAR onesuperior
ENCODING 185
SWIDTH 1000 0
DWIDTH 11 0
BBX 0 0 0 0
BITMAP
ENDCHAR
STARTCHAR ordmasculine
ENCODING 186
SWIDTH 1000 0
DWIDTH 11 0
BBX 0 0 0 0
BITMAP
ENDCHAR
STARTCHAR guillemotright
ENCODING 187
SWIDTH 1000 0
DWIDTH 11 0
BBX 0 0 0 0
BITMAP
ENDCHAR
STARTCHAR onequarter
ENCODING 188
SWIDTH 1000 0
DWIDTH 11 0
BBX 0 0 0 0
BITMAP
ENDCHAR
STARTCHAR onehalf
ENCODING 189
SWIDTH 1000 0
DWIDTH 11 0
BBX 0 0 0 0
BITMAP
ENDCHAR
STARTCHAR threequarters
ENCODING 190
SWIDTH 1000 0
DWIDTH 11 0
BBX 0 0 0 0
BITMAP
ENDCHAR
STARTCHAR questiondown
ENCODING 191
SWIDTH 1000 0
DWIDTH 11 0
BBX 0 0 0 0
BITMAP
ENDCHAR
STARTCHAR SpaceshipN
ENCODING 192
SWIDTH 1000 0
DWIDTH 11 0
BBX 0 0 0 0
BITMAP
ENDCHAR
STARTCHAR SpaceshipE
ENCODING 193
SWIDTH 1000 0
DWIDTH 11 0
BBX 0 0 0 0
BITMAP
ENDCHAR
STARTCHAR SpaceshipS
ENCODING 194
SWIDTH 1000 0
DWIDTH 11 0
BBX 0 0 0 0
BITMAP
ENDCHAR
STARTCHAR SpaceshipO
ENCODING 195
SWIDTH 1000 0
DWIDTH 11 0
BBX 0 0 0 0
BITMAP
ENDCHAR
STARTCHAR Adieresis
ENCODING 196
SWIDTH 1000 0
DWIDTH 11 0
BBX 0 0 0 0
BITMAP
ENDCHAR
STARTCHAR Aring
ENCODING 197
SWIDTH 1000 0
DWIDTH 11 0
BBX 0 0 0 0
BITMAP
ENDCHAR
STARTCHAR AE
ENCODING 198
SWIDTH 1000 0
DWIDTH 11 0
BBX 0 0 0 0
BITMAP
ENDCHAR
STARTCHAR Ccedilla
ENCODING 199
SWIDTH 1000 0
DWIDTH 11 0
BBX 0 0 0 0
BITMAP
ENDCHAR
STARTCHAR Egrave
ENCODING 200
SWIDTH 1000 0
DWIDTH 11 0
BBX 0 0 0 0
BITMAP
ENDCHAR
STARTCHAR Eacute
ENCODING 201
SWIDTH 1000 0
DWIDTH 11 0
BBX 0 0 0 0
BITMAP
ENDCHAR
STARTCHAR Ecircumflex
ENCODING 202
SWIDTH 1000 0
DWIDTH 11 0
BBX 0 0 0 0
BITMAP
ENDCHAR
STARTCHAR Edieresis
ENCODING 203
SWIDTH 1000 0
DWIDTH 11 0
BBX 0 0 0 0
BITMAP
ENDCHAR
STARTCHAR Igrave
ENCODING 204
SWIDTH 1000 0
DWIDTH 11 0
BBX 0 0 0 0
BITMAP
ENDCHAR
STARTCHAR Iacute
ENCODING 205
SWIDTH 1000 0
DWIDTH 11 0
BBX 0 0 0 0
BITMAP
ENDCHAR
STARTCHAR Icircumflex
ENCODING 206
SWIDTH 1000 0
DWIDTH 11 0
BBX 0 0 0 0
BITMAP
ENDCHAR
STARTCHAR Idieresis
ENCODING 207
SWIDTH 1000 0
DWIDTH 11 0
BBX 0 0 0 0
BITMAP
ENDCHAR
STARTCHAR Eth
ENCODING 208
SWIDTH 1000 0
DWIDTH 11 0
BBX 0 0 0 0
BITMAP
ENDCHAR
STARTCHAR Ntilde
ENCODING 209
SWIDTH 1000 0
DWIDTH 11 0
BBX 0 0 0 0
BITMAP
ENDCHAR
STARTCHAR Ograve
ENCODING 210
SWIDTH 1000 0
DWIDTH 11 0
BBX 0 0 0 0
BITMAP
ENDCHAR
STARTCHAR Oacute
ENCODING 211
SWIDTH 1000 0
DWIDTH 11 0
BBX 0 0 0 0
BITMAP
ENDCHAR
STARTCHAR Ocircumflex
ENCODING 212
SWIDTH 1000 0
DWIDTH 11 0
BBX 0 0 0 0
BITMAP
ENDCHAR
STARTCHAR Otilde
ENCODING 213
SWIDTH 1000 0
DWIDTH 11 0
BBX 0 0 0 0
BITMAP
ENDCHAR
STARTCHAR Odieresis
ENCODING 214
SWIDTH 1000 0
DWIDTH 11 0
BBX 0 0 0 0
BITMAP
ENDCHAR
STARTCHAR multiply
ENCODING 215
SWIDTH 1000 0
DWIDTH 11 0
BBX 0 0 0 0
BITMAP
ENDCHAR
STARTCHAR Oslash
ENCODING 216
SWIDTH 1000 0
DWIDTH 11 0
BBX 0 0 0 0
BITMAP
ENDCHAR
STARTCHAR Ugrave
ENCODING 217
SWIDTH 1000 0
DWIDTH 11 0
BBX 0 0 0 0
BITMAP
ENDCHAR
STARTCHAR Uacute
ENCODING 218
SWIDTH 1000 0
DWIDTH 11 0
BBX 0 0 0 0
BITMAP
ENDCHAR
STARTCHAR Ucircumflex
ENCODING 219
SWIDTH 1000 0
DWIDTH 11 0
BBX 0 0 0 0
BITMAP
ENDCHAR
STARTCHAR Udieresis
ENCODING 220
SWIDTH 1000 0
DWIDTH 11 0
BBX 0 0 0 0
BITMAP
ENDCHAR
STARTCHAR Yacute
ENCODING 221
SWIDTH 1000 0
DWIDTH 11 0
BBX 0 0 0 0
BITMAP
ENDCHAR
STARTCHAR Thorn
ENCODING 222
SWIDTH 1000 0
DWIDTH 11 0
BBX 0 0 0 0
BITMAP
ENDCHAR
STARTCHAR germandbls
ENCODING 223
SWIDTH 1000 0
DWIDTH 11 0
BBX 0 0 0 0
BITMAP
ENDCHAR
STARTCHAR agrave
ENCODING 224
SWIDTH 1000 0
DWIDTH 11 0
BBX 0 0 0 0
BITMAP
ENDCHAR
STARTCHAR aacute
ENCODING 225
SWIDTH 1000 0
DWIDTH 11 0
BBX 0 0 0 0
BITMAP
ENDCHAR
STARTCHAR acircumflex
ENCODING 226
SWIDTH 1000 0
DWIDTH 11 0
BBX 0 0 0 0
BITMAP
ENDCHAR
STARTCHAR atilde
ENCODING 227
SWIDTH 1000 0
DWIDTH 11 0
BBX 0 0 0 0
BITMAP
ENDCHAR
STARTCHAR adieresis
ENCODING 228
SWIDTH 1000 0
DWIDTH 11 0
BBX 0 0 0 0
BITMAP
ENDCHAR
STARTCHAR aring
ENCODING 229
SWIDTH 1000 0
DWIDTH 11 0
BBX 0 0 0 0
BITMAP
ENDCHAR
STARTCHAR ae
ENCODING 230
SWIDTH 1000 0
DWIDTH 11 0
BBX 0 0 0 0
BITMAP
ENDCHAR
STARTCHAR ccedilla
ENCODING 231
SWIDTH 1000 0
DWIDTH 11 0
BBX 0 0 0 0
BITMAP
ENDCHAR
STARTCHAR egrave
ENCODING 232
SWIDTH 1000 0
DWIDTH 11 0
BBX 0 0 0 0
BITMAP
ENDCHAR
STARTCHAR eacute
ENCODING 233
SWIDTH 1000 0
DWIDTH 11 0
BBX 0 0 0 0
BITMAP
ENDCHAR
STARTCHAR ecircumflex
ENCODING 234
SWIDTH 1000 0
DWIDTH 11 0
BBX 0 0 0 0
BITMAP
ENDCHAR
STARTCHAR edieresis
ENCODING 235
SWIDTH 1000 0
DWIDTH 11 0
BBX 0 0 0 0
BITMAP
ENDCHAR
STARTCHAR igrave
ENCODING 236
SWIDTH 1000 0
DWIDTH 11 0
BBX 0 0 0 0
BITMAP
ENDCHAR
STARTCHAR iacute
ENCODING 237
SWIDTH 1000 0
DWIDTH 11 0
BBX 0 0 0 0
BITMAP
ENDCHAR
STARTCHAR icircumflex
ENCODING 238
SWIDTH 1000 0
DWIDTH 11 0
BBX 0 0 0 0
BITMAP
ENDCHAR
STARTCHAR idieresis
ENCODING 239
SWIDTH 1000 0
DWIDTH 11 0
BBX 0 0 0 0
BITMAP
ENDCHAR
STARTCHAR eth
ENCODING 240
SWIDTH 1000 0
DWIDTH 11 0
BBX 0 0 0 0
BITMAP
ENDCHAR
STARTCHAR ntilde
ENCODING 241
SWIDTH 1000 0
DWIDTH 11 0
BBX 0 0 0 0
BITMAP
ENDCHAR
STARTCHAR ograve
ENCODING 242
SWIDTH 1000 0
DWIDTH 11 0
BBX 0 0 0 0
BITMAP
ENDCHAR
STARTCHAR oacute
ENCODING 243
SWIDTH 1000 0
DWIDTH 11 0
BBX 0 0 0 0
BITMAP
ENDCHAR
STARTCHAR ocircumflex
ENCODING 244
SWIDTH 1000 0
DWIDTH 11 0
BBX 0 0 0 0
BITMAP
ENDCHAR
STARTCHAR otilde
ENCODING 245
SWIDTH 1000 0
DWIDTH 11 0
BBX 0 0 0 0
BITMAP
ENDCHAR
STARTCHAR odieresis
ENCODING 246
SWIDTH 1000 0
DWIDTH 11 0
BBX 0 0 0 0
BITMAP
ENDCHAR
STARTCHAR divide
ENCODING 247
SWIDTH 1000 0
DWIDTH 11 0
BBX 0 0 0 0
BITMAP
ENDCHAR
STARTCHAR oslash
ENCODING 248
SWIDTH 1000 0
DWIDTH 11 0
BBX 0 0 0 0
BITMAP
ENDCHAR
STARTCHAR ugrave
ENCODING 249
SWIDTH 1000 0
DWIDTH 11 0
BBX 0 0 0 0
BITMAP
ENDCHAR
STARTCHAR uacute
ENCODING 250
SWIDTH 1000 0
DWIDTH 11 0
BBX 0 0 0 0
BITMAP
ENDCHAR
STARTCHAR ucircumflex
ENCODING 251
SWIDTH 1000 0
DWIDTH 11 0
BBX 0 0 0 0
BITMAP
ENDCHAR
STARTCHAR udieresis
ENCODING 252
SWIDTH 1000 0
DWIDTH 11 0
BBX 0 0 0 0
BITMAP
ENDCHAR
STARTCHAR yacute
ENCODING 253
SWIDTH 1000 0
DWIDTH 11 0
BBX 0 0 0 0
BITMAP
ENDCHAR
STARTCHAR thorn
ENCODING 254
SWIDTH 1000 0
DWIDTH 11 0
BBX 0 0 0 0
BITMAP
ENDCHAR
STARTCHAR ydieresis
ENCODING 255
SWIDTH 1000 0
DWIDTH 11 0
BBX 0 0 0 0
BITMAP
ENDCHAR
ENDFONT
